<svg xmlns="http://www.w3.org/2000/svg" width="130.139" height="43.501" viewBox="0 0 130.139 43.501"><defs><style>.a{fill:#a6a6a6;}.b{fill:#fff;}</style></defs><g transform="translate(0 0)"><path class="a" d="M119.775,0H10.369c-.4,0-.793,0-1.191,0-.333,0-.663.008-1,.014A14.371,14.371,0,0,0,6,.208,7.249,7.249,0,0,0,3.933.89a7,7,0,0,0-1.76,1.282A6.806,6.806,0,0,0,.891,3.935,7.179,7.179,0,0,0,.211,6,14.13,14.13,0,0,0,.016,8.182c-.01.333-.011.668-.016,1V34.321c.005.338.006.665.016,1A14.13,14.13,0,0,0,.211,37.5a7.164,7.164,0,0,0,.68,2.071,6.751,6.751,0,0,0,1.281,1.756,6.824,6.824,0,0,0,1.76,1.282A7.287,7.287,0,0,0,6,43.3a14.633,14.633,0,0,0,2.179.192c.336.007.666.012,1,.012.4,0,.792,0,1.191,0H119.775c.391,0,.788,0,1.179,0,.331,0,.671,0,1-.012a14.441,14.441,0,0,0,2.175-.192,7.4,7.4,0,0,0,2.075-.686,6.827,6.827,0,0,0,1.759-1.282,6.955,6.955,0,0,0,1.285-1.756,7.182,7.182,0,0,0,.673-2.071,14.687,14.687,0,0,0,.2-2.177c0-.338,0-.665,0-1,.008-.4.008-.788.008-1.19V10.371c0-.4,0-.793-.008-1.187,0-.333,0-.668,0-1a14.687,14.687,0,0,0-.2-2.177,7.2,7.2,0,0,0-.673-2.07A7.032,7.032,0,0,0,126.207.89a7.36,7.36,0,0,0-2.075-.682,14.186,14.186,0,0,0-2.175-.192c-.331-.005-.671-.012-1-.014-.391,0-.788,0-1.179,0Z" transform="translate(0 0)"/><path d="M9.108,42.473c-.331,0-.655,0-.983-.012a13.8,13.8,0,0,1-2.033-.177,6.4,6.4,0,0,1-1.8-.6A5.879,5.879,0,0,1,2.77,40.583a5.787,5.787,0,0,1-1.11-1.519,6.223,6.223,0,0,1-.591-1.8,13.5,13.5,0,0,1-.181-2.039c-.007-.229-.016-.993-.016-.993V9.107s.01-.752.016-.973A13.453,13.453,0,0,1,1.069,6.1,6.259,6.259,0,0,1,1.66,4.291a5.844,5.844,0,0,1,1.1-1.52A6.053,6.053,0,0,1,4.289,1.658a6.333,6.333,0,0,1,1.8-.592A13.688,13.688,0,0,1,8.127.888L9.108.875H120.872l.993.014a13.469,13.469,0,0,1,2.021.177,6.458,6.458,0,0,1,1.817.6,6.083,6.083,0,0,1,2.626,2.632,6.267,6.267,0,0,1,.582,1.793,14.134,14.134,0,0,1,.189,2.052c0,.308,0,.639,0,.968.009.408.009.8.009,1.187V33.055c0,.4,0,.781-.009,1.169,0,.354,0,.678,0,1.011a13.845,13.845,0,0,1-.186,2.016,6.242,6.242,0,0,1-.587,1.816,5.96,5.96,0,0,1-1.1,1.507,5.887,5.887,0,0,1-1.522,1.112,6.375,6.375,0,0,1-1.814.6,13.64,13.64,0,0,1-2.033.177c-.319.007-.652.012-.976.012l-1.179,0Z" transform="translate(0.076 0.077)"/><g transform="translate(10.844 9.484)"><path class="b" d="M26.064,20.855a5.382,5.382,0,0,1,2.563-4.516,5.509,5.509,0,0,0-4.341-2.347c-1.826-.192-3.6,1.093-4.527,1.093-.949,0-2.381-1.074-3.924-1.042A5.781,5.781,0,0,0,10.97,17.01c-2.1,3.642-.534,8.993,1.48,11.937,1.008,1.441,2.186,3.051,3.728,2.994,1.508-.063,2.072-.962,3.893-.962,1.8,0,2.333.962,3.905.926,1.619-.026,2.639-1.448,3.611-2.9a11.922,11.922,0,0,0,1.651-3.363A5.2,5.2,0,0,1,26.064,20.855Z" transform="translate(-9.972 -8.26)"/><path class="b" d="M22.321,12.516a5.3,5.3,0,0,0,1.212-3.8,5.391,5.391,0,0,0-3.488,1.8A5.042,5.042,0,0,0,18.8,14.181,4.458,4.458,0,0,0,22.321,12.516Z" transform="translate(-9.2 -8.72)"/><g transform="translate(26.596 9.952)"><path class="b" d="M42.992,27.933H37.844l-1.236,3.65h-2.18l4.876-13.5h2.265l4.876,13.5H44.227Zm-4.615-1.684h4.08l-2.012-5.924H40.39Z" transform="translate(-34.427 -17.853)"/><path class="b" d="M55.906,26.374c0,3.06-1.638,5.026-4.109,5.026a3.338,3.338,0,0,1-3.1-1.723h-.047v4.877H46.631v-13.1h1.956v1.638h.037a3.493,3.493,0,0,1,3.135-1.741C54.259,21.348,55.906,23.323,55.906,26.374Zm-2.077,0c0-1.993-1.03-3.3-2.6-3.3-1.544,0-2.583,1.338-2.583,3.3,0,1.984,1.039,3.313,2.583,3.313C52.8,29.687,53.829,28.386,53.829,26.374Z" transform="translate(-33.359 -17.567)"/><path class="b" d="M65.871,26.374c0,3.06-1.638,5.026-4.109,5.026a3.338,3.338,0,0,1-3.1-1.723h-.047v4.877H56.6v-13.1h1.956v1.638h.037a3.493,3.493,0,0,1,3.135-1.741C64.224,21.348,65.871,23.323,65.871,26.374Zm-2.077,0c0-1.993-1.03-3.3-2.6-3.3-1.544,0-2.583,1.338-2.583,3.3,0,1.984,1.039,3.313,2.583,3.313,1.572,0,2.6-1.3,2.6-3.313Z" transform="translate(-32.487 -17.567)"/><path class="b" d="M71.877,27.838c.15,1.339,1.451,2.219,3.229,2.219,1.7,0,2.929-.879,2.929-2.087,0-1.048-.739-1.676-2.489-2.106l-1.75-.422c-2.48-.6-3.631-1.759-3.631-3.641,0-2.33,2.031-3.931,4.914-3.931,2.854,0,4.81,1.6,4.876,3.931h-2.04c-.122-1.348-1.236-2.161-2.864-2.161s-2.742.823-2.742,2.021c0,.955.712,1.517,2.452,1.947l1.488.365c2.771.655,3.922,1.768,3.922,3.744,0,2.527-2.013,4.109-5.214,4.109-2.995,0-5.017-1.545-5.148-3.988Z" transform="translate(-31.33 -17.871)"/><path class="b" d="M83.625,19.3v2.33H85.5v1.6H83.625v5.428c0,.843.375,1.236,1.2,1.236a6.316,6.316,0,0,0,.665-.047v1.591a5.551,5.551,0,0,1-1.123.093c-1.993,0-2.771-.749-2.771-2.658V23.23H80.163v-1.6h1.432V19.3Z" transform="translate(-30.424 -17.746)"/><path class="b" d="M86.065,26.376c0-3.1,1.825-5.045,4.67-5.045s4.671,1.947,4.671,5.045S93.6,31.42,90.735,31.42,86.065,29.482,86.065,26.376Zm7.281,0c0-2.125-.974-3.379-2.612-3.379s-2.61,1.264-2.61,3.379c0,2.134.973,3.378,2.61,3.378s2.612-1.245,2.612-3.378Z" transform="translate(-29.907 -17.568)"/><path class="b" d="M96.186,21.451h1.928v1.676h.047a2.348,2.348,0,0,1,2.368-1.779,3.117,3.117,0,0,1,.692.075v1.89a2.825,2.825,0,0,0-.908-.122,2.037,2.037,0,0,0-2.106,2.265V31.3H96.186Z" transform="translate(-29.021 -17.567)"/><path class="b" d="M110.1,28.406c-.272,1.787-2.013,3.014-4.24,3.014-2.864,0-4.642-1.919-4.642-5s1.787-5.091,4.557-5.091c2.724,0,4.437,1.871,4.437,4.857v.692h-6.954V27a2.564,2.564,0,0,0,2.649,2.789,2.228,2.228,0,0,0,2.274-1.385Zm-6.832-2.939h4.923a2.368,2.368,0,0,0-2.415-2.5,2.493,2.493,0,0,0-2.507,2.5Z" transform="translate(-28.581 -17.568)"/></g></g></g><g transform="translate(38.793 9.176)"><path class="b" d="M38.015,8.732a2.871,2.871,0,0,1,3.053,3.224c0,2.073-1.12,3.265-3.053,3.265H35.671V8.732ZM36.679,14.3H37.9a2.04,2.04,0,0,0,2.14-2.334A2.046,2.046,0,0,0,37.9,9.649H36.679Z" transform="translate(-35.671 -8.412)"/><path class="b" d="M41.682,12.649a2.32,2.32,0,1,1,4.619,0,2.32,2.32,0,1,1-4.619,0Zm3.625,0c0-1.062-.477-1.682-1.314-1.682s-1.313.621-1.313,1.682.473,1.686,1.313,1.686,1.314-.62,1.314-1.686Z" transform="translate(-35.146 -8.291)"/><path class="b" d="M52.011,15.092h-1L50,11.485H49.92l-1.008,3.607h-.993l-1.35-4.9h.98l.877,3.737H48.5l1.007-3.737h.927l1.007,3.737h.076l.873-3.737h.966Z" transform="translate(-34.717 -8.283)"/><path class="b" d="M53.854,10.2h.93v.778h.072a1.466,1.466,0,0,1,1.461-.872,1.593,1.593,0,0,1,1.7,1.821V15.1h-.966V12.172c0-.787-.342-1.178-1.057-1.178a1.123,1.123,0,0,0-1.169,1.241V15.1h-.966Z" transform="translate(-34.079 -8.291)"/><path class="b" d="M59.094,8.437h.966v6.809h-.966Z" transform="translate(-33.621 -8.437)"/><path class="b" d="M61.219,12.649a2.32,2.32,0,1,1,4.619,0,2.321,2.321,0,1,1-4.619,0Zm3.625,0c0-1.062-.477-1.682-1.314-1.682s-1.313.621-1.313,1.682.473,1.686,1.313,1.686,1.314-.62,1.314-1.686Z" transform="translate(-33.436 -8.291)"/><path class="b" d="M66.4,13.715c0-.882.656-1.39,1.821-1.462l1.326-.076v-.423c0-.517-.342-.809-1-.809-.54,0-.913.2-1.021.544H66.59c.1-.841.89-1.381,2-1.381,1.228,0,1.92.611,1.92,1.646V15.1h-.93v-.688H69.5a1.648,1.648,0,0,1-1.471.769A1.479,1.479,0,0,1,66.4,13.715Zm3.148-.418v-.409l-1.2.076c-.674.045-.98.275-.98.706s.382.7.908.7A1.154,1.154,0,0,0,69.549,13.3Z" transform="translate(-32.981 -8.291)"/><path class="b" d="M71.348,12.8c0-1.547.8-2.528,2.033-2.528a1.614,1.614,0,0,1,1.5.859h.072V8.437h.966v6.809H75v-.774h-.076a1.7,1.7,0,0,1-1.538.854C72.135,15.327,71.348,14.346,71.348,12.8Zm1,0c0,1.039.49,1.664,1.308,1.664s1.318-.634,1.318-1.659-.509-1.664-1.318-1.664-1.308.629-1.308,1.659Z" transform="translate(-32.548 -8.437)"/><path class="b" d="M79.231,12.649a2.32,2.32,0,1,1,4.619,0,2.32,2.32,0,1,1-4.619,0Zm3.625,0c0-1.062-.477-1.682-1.314-1.682s-1.313.621-1.313,1.682.473,1.686,1.313,1.686S82.856,13.715,82.856,12.649Z" transform="translate(-31.859 -8.291)"/><path class="b" d="M84.669,10.2h.93v.778h.072a1.466,1.466,0,0,1,1.461-.872,1.593,1.593,0,0,1,1.7,1.821V15.1h-.966V12.172c0-.787-.342-1.178-1.057-1.178a1.123,1.123,0,0,0-1.169,1.241V15.1h-.966Z" transform="translate(-31.382 -8.291)"/><path class="b" d="M93.656,9.074v1.242h1.061v.814H93.656v2.518c0,.513.211.738.692.738a3.226,3.226,0,0,0,.369-.022v.805a3.17,3.17,0,0,1-.526.049c-1.075,0-1.5-.378-1.5-1.322V11.129h-.777v-.814h.777V9.074Z" transform="translate(-30.748 -8.381)"/><path class="b" d="M95.7,8.437h.958v2.7h.076a1.507,1.507,0,0,1,1.493-.877,1.613,1.613,0,0,1,1.687,1.826v3.162h-.967V12.322c0-.782-.364-1.178-1.047-1.178a1.144,1.144,0,0,0-1.233,1.242v2.86H95.7Z" transform="translate(-30.416 -8.437)"/><path class="b" d="M105.116,13.777a1.988,1.988,0,0,1-2.122,1.417,2.224,2.224,0,0,1-2.262-2.528,2.259,2.259,0,0,1,2.258-2.558c1.363,0,2.185.931,2.185,2.469v.337h-3.458v.054a1.294,1.294,0,0,0,1.3,1.4,1.174,1.174,0,0,0,1.165-.594Zm-3.4-1.578h2.473a1.182,1.182,0,0,0-1.205-1.269,1.252,1.252,0,0,0-1.268,1.269Z" transform="translate(-29.978 -8.291)"/></g></svg>