<svg xmlns="http://www.w3.org/2000/svg" xmlns:xlink="http://www.w3.org/1999/xlink" width="260" height="16.1" viewBox="0 0 260 16.1">
  <defs>
    <clipPath id="clip-path">
      <rect id="Rectangle_3" data-name="Rectangle 3" width="260" height="16.1" transform="translate(694 90)" fill="#fff" stroke="#707070" stroke-width="1"/>
    </clipPath>
    <clipPath id="clip-path-2">
      <rect id="Rectangle_2" data-name="Rectangle 2" width="260" height="886.013" rx="4" fill="#f4f4f4"/>
    </clipPath>
  </defs>
  <g id="Mask_Group_1" data-name="Mask Group 1" transform="translate(-694 -90)" clip-path="url(#clip-path)">
    <g id="Mask_Group_13" data-name="Mask Group 13" transform="translate(694 90)" clip-path="url(#clip-path-2)">
      <g id="Group_185" data-name="Group 185" transform="translate(-11.837 -0.001)">
        <g id="Group_149" data-name="Group 149" transform="translate(0 0.001)" opacity="0.2">
          <path id="Path_145" data-name="Path 145" d="M2874.486,1038,2833,1045.315v-.761l37.157-6.554Z" transform="translate(-2833 -1038)" fill="#b2b2b2"/>
        </g>
        <g id="Group_150" data-name="Group 150" transform="translate(0)" opacity="0.2">
          <path id="Path_146" data-name="Path 146" d="M2995.009,1038l-35.268,6.221-74.927.008L2833,1053.366v-.761l51.929-9.16v.031h74.741l.575-.109,30.437-5.367Z" transform="translate(-2833 -1037.999)" fill="#b2b2b2"/>
        </g>
        <g id="Group_151" data-name="Group 151" transform="translate(0 0.001)" opacity="0.2">
          <path id="Path_147" data-name="Path 147" d="M3111.675,1038v.69l-2.652.467-74.956,0-74.326,13.114-74.922,0L2833,1061.414v-.762l51.929-9.16,0,.031h74.74l.575-.106L3034,1038.412l74.956-.005,2.312-.407Z" transform="translate(-2833 -1038)" fill="#b2b2b2"/>
        </g>
        <g id="Group_152" data-name="Group 152" transform="translate(0 7.976)" opacity="0.2">
          <path id="Path_148" data-name="Path 148" d="M3111.675,1068.91v.759l-2.652.467-74.956.008-74.326,13.111-74.922,0L2833,1092.4v-.759l51.929-9.16,0,.031h74.74l.575-.109L3034,1069.394l74.956,0Z" transform="translate(-2833 -1068.91)" fill="#b2b2b2"/>
        </g>
        <g id="Group_153" data-name="Group 153" transform="translate(0 16.027)" opacity="0.2">
          <path id="Path_149" data-name="Path 149" d="M3111.675,1100.11v.759l-2.652.467-74.956.005-74.326,13.113-74.927.005L2833,1123.6v-.762l51.929-9.16v.031h74.741l.575-.106L3034,1100.594l74.956-.005Z" transform="translate(-2833 -1100.11)" fill="#b2b2b2"/>
        </g>
        <g id="Group_154" data-name="Group 154" transform="translate(0 24.076)" opacity="0.2">
          <path id="Path_150" data-name="Path 150" d="M3111.675,1131.3v.759l-2.652.467-74.956.008-74.326,13.111-74.922.008L2833,1154.789v-.761l51.929-9.16,0,.031h74.74l.575-.109L3034,1131.784l74.956,0Z" transform="translate(-2833 -1131.3)" fill="#b2b2b2"/>
        </g>
        <g id="Group_155" data-name="Group 155" transform="translate(0 32.123)" opacity="0.2">
          <path id="Path_151" data-name="Path 151" d="M3111.675,1162.49v.761l-2.652.468-74.956,0-74.326,13.114-74.922,0L2833,1185.977v-.762l51.929-9.16,0,.031h74.74l.575-.106L3034,1162.975l74.956-.008Z" transform="translate(-2833 -1162.49)" fill="#b2b2b2"/>
        </g>
        <g id="Group_156" data-name="Group 156" transform="translate(0 40.174)" opacity="0.2">
          <path id="Path_152" data-name="Path 152" d="M3111.675,1193.69v.761l-2.652.467-74.956.005-74.326,13.111-74.927.008L2833,1217.177v-.761l51.929-9.16v.031h74.741l.575-.109L3034,1194.172l74.956,0Z" transform="translate(-2833 -1193.69)" fill="#b2b2b2"/>
        </g>
        <g id="Group_157" data-name="Group 157" transform="translate(0 48.222)" opacity="0.2">
          <path id="Path_153" data-name="Path 153" d="M3111.675,1224.88v.761l-2.652.467-74.956,0-74.326,13.114-74.922,0L2833,1248.369v-.761l51.929-9.16,0,.031h74.74l.575-.106L3034,1225.367l74.956-.008Z" transform="translate(-2833 -1224.88)" fill="#b2b2b2"/>
        </g>
        <g id="Group_158" data-name="Group 158" transform="translate(0 56.273)" opacity="0.2">
          <path id="Path_154" data-name="Path 154" d="M3111.675,1256.08v.759l-2.652.467-74.956.008-74.326,13.111-74.922,0L2833,1279.566v-.759l51.929-9.16,0,.031h74.74l.575-.109L3034,1256.564l74.956,0Z" transform="translate(-2833 -1256.08)" fill="#b2b2b2"/>
        </g>
        <g id="Group_159" data-name="Group 159" transform="translate(0 64.321)" opacity="0.2">
          <path id="Path_155" data-name="Path 155" d="M3111.675,1287.27v.761l-2.652.468-74.956,0-74.326,13.114-74.927,0L2833,1310.759V1310l51.929-9.16v.031h74.741l.575-.106L3034,1287.757l74.956-.008Z" transform="translate(-2833 -1287.27)" fill="#b2b2b2"/>
        </g>
        <g id="Group_160" data-name="Group 160" transform="translate(0 72.371)" opacity="0.2">
          <path id="Path_156" data-name="Path 156" d="M3111.675,1318.47v.759l-2.652.467-74.956.008-74.326,13.111-74.922,0L2833,1341.956v-.759l51.929-9.16,0,.031h74.74l.575-.108L3034,1318.954l74.956,0Z" transform="translate(-2833 -1318.47)" fill="#b2b2b2"/>
        </g>
        <g id="Group_161" data-name="Group 161" transform="translate(0 80.422)" opacity="0.2">
          <path id="Path_157" data-name="Path 157" d="M3111.675,1349.67v.759l-2.652.467-74.956,0-74.329,13.114-74.92.005L2833,1373.156v-.762l51.929-9.16,0,.031h74.74l.578-.106,73.751-13,74.956-.005Z" transform="translate(-2833 -1349.67)" fill="#b2b2b2"/>
        </g>
        <g id="Group_162" data-name="Group 162" transform="translate(0 88.47)" opacity="0.2">
          <path id="Path_158" data-name="Path 158" d="M3111.675,1380.86v.759l-2.652.468-74.956.008-74.326,13.111-74.922,0L2833,1404.346v-.759l51.929-9.16,0,.031h74.74l.575-.109L3034,1381.344l74.956,0Z" transform="translate(-2833 -1380.86)" fill="#b2b2b2"/>
        </g>
        <g id="Group_163" data-name="Group 163" transform="translate(0 96.518)" opacity="0.2">
          <path id="Path_159" data-name="Path 159" d="M3111.675,1412.05v.761l-2.652.467-74.956,0-74.326,13.114-74.922,0L2833,1435.539v-.761l51.929-9.16,0,.031h74.74l.575-.106L3034,1412.537l74.956-.008Z" transform="translate(-2833 -1412.05)" fill="#b2b2b2"/>
        </g>
        <g id="Group_164" data-name="Group 164" transform="translate(0 104.568)" opacity="0.2">
          <path id="Path_160" data-name="Path 160" d="M3111.675,1443.25v.759l-2.652.468-74.956.008-74.326,13.111-74.922.008L2833,1466.739v-.761l51.929-9.16,0,.031h74.74l.575-.109L3034,1443.734l74.956,0Z" transform="translate(-2833 -1443.25)" fill="#b2b2b2"/>
        </g>
        <g id="Group_165" data-name="Group 165" transform="translate(0 112.616)" opacity="0.2">
          <path id="Path_161" data-name="Path 161" d="M3111.675,1474.44v.761l-2.652.467-74.956,0-74.326,13.111-74.922.008L2833,1497.929v-.761l51.929-9.16,0,.031h74.74l.575-.108,73.753-13,74.956-.008Z" transform="translate(-2833 -1474.44)" fill="#b2b2b2"/>
        </g>
        <g id="Group_166" data-name="Group 166" transform="translate(0 120.667)" opacity="0.2">
          <path id="Path_162" data-name="Path 162" d="M3111.675,1505.64v.759l-2.652.468-74.956.008-74.326,13.111-74.922,0L2833,1529.126v-.759l51.929-9.16,0,.031h74.74l.575-.109L3034,1506.124l74.956,0Z" transform="translate(-2833 -1505.64)" fill="#b2b2b2"/>
        </g>
        <g id="Group_167" data-name="Group 167" transform="translate(0 128.715)" opacity="0.2">
          <path id="Path_163" data-name="Path 163" d="M3111.675,1536.83v.76l-2.652.468-74.956,0-74.326,13.114-74.922,0L2833,1560.319v-.76l51.929-9.16,0,.031h74.74l.575-.106L3034,1537.318l74.956-.008Z" transform="translate(-2833 -1536.83)" fill="#b2b2b2"/>
        </g>
        <g id="Group_168" data-name="Group 168" transform="translate(0 136.766)" opacity="0.2">
          <path id="Path_164" data-name="Path 164" d="M3111.675,1568.03v.761l-2.652.468-74.956.005-74.326,13.111-74.925,0L2833,1591.516v-.761l51.929-9.16,0,.031h74.74l.575-.106L3034,1568.514l74.956,0Z" transform="translate(-2833 -1568.03)" fill="#b2b2b2"/>
        </g>
        <g id="Group_169" data-name="Group 169" transform="translate(0 144.814)" opacity="0.2">
          <path id="Path_165" data-name="Path 165" d="M3111.675,1599.22v.761l-2.652.467-74.956,0-74.326,13.111-74.922.008L2833,1622.709v-.761l51.929-9.16,0,.031h74.74l.575-.109,73.753-13,74.956-.005Z" transform="translate(-2833 -1599.22)" fill="#b2b2b2"/>
        </g>
        <g id="Group_170" data-name="Group 170" transform="translate(0 152.864)" opacity="0.2">
          <path id="Path_166" data-name="Path 166" d="M3111.675,1630.42v.759l-2.652.468-74.956.008-74.326,13.111-74.922.005L2833,1653.906v-.759l51.929-9.16,0,.031h74.74l.575-.109L3034,1630.9l74.956,0Z" transform="translate(-2833 -1630.42)" fill="#b2b2b2"/>
        </g>
        <g id="Group_171" data-name="Group 171" transform="translate(0 160.915)" opacity="0.2">
          <path id="Path_167" data-name="Path 167" d="M3111.675,1661.62v.759l-2.652.467-74.956,0-74.329,13.111-74.922.008L2833,1685.106v-.761l51.929-9.16,0,.031h74.74l.578-.106L3034,1662.1l74.956,0Z" transform="translate(-2833 -1661.62)" fill="#b2b2b2"/>
        </g>
        <g id="Group_172" data-name="Group 172" transform="translate(0 168.963)" opacity="0.2">
          <path id="Path_168" data-name="Path 168" d="M3111.675,1692.81v.759l-2.652.468-74.956.005-74.326,13.113-74.922.005L2833,1716.3v-.761l51.929-9.16,0,.031h74.74l.575-.106L3034,1693.294l74.956,0Z" transform="translate(-2833 -1692.81)" fill="#b2b2b2"/>
        </g>
        <g id="Group_173" data-name="Group 173" transform="translate(0 177.011)" opacity="0.2">
          <path id="Path_169" data-name="Path 169" d="M3111.675,1724v.761l-2.652.467-74.956,0-74.326,13.114-74.922,0L2833,1747.489v-.76l51.929-9.16,0,.031h74.74l.575-.106L3034,1724.488l74.956-.008Z" transform="translate(-2833 -1724)" fill="#b2b2b2"/>
        </g>
        <g id="Group_174" data-name="Group 174" transform="translate(0 185.061)" opacity="0.2">
          <path id="Path_170" data-name="Path 170" d="M3111.675,1755.2v.759l-2.652.468-74.956.008-74.326,13.111-74.933.008L2833,1778.687v-.761l51.929-9.16,0,.034h74.74l.575-.108L3034,1755.686l74.956-.005Z" transform="translate(-2833 -1755.2)" fill="#b2b2b2"/>
        </g>
        <g id="Group_175" data-name="Group 175" transform="translate(0 193.109)" opacity="0.2">
          <path id="Path_171" data-name="Path 171" d="M3111.675,1786.39v.761l-2.652.468-74.956,0-74.326,13.111-74.922.008L2833,1809.877v-.761l51.929-9.16,0,.031h74.74l.575-.108L3034,1786.872l74.956-.005Z" transform="translate(-2833 -1786.39)" fill="#b2b2b2"/>
        </g>
        <g id="Group_176" data-name="Group 176" transform="translate(0 201.16)" opacity="0.2">
          <path id="Path_172" data-name="Path 172" d="M3111.675,1817.59v.759l-2.652.468-74.956.008-74.326,13.111-74.922.005L2833,1841.077v-.759l51.929-9.16,0,.031h74.74l.575-.108L3034,1818.075l74.956-.005Z" transform="translate(-2833 -1817.59)" fill="#b2b2b2"/>
        </g>
        <g id="Group_177" data-name="Group 177" transform="translate(0 209.208)" opacity="0.2">
          <path id="Path_173" data-name="Path 173" d="M3111.675,1848.78v.761l-2.652.467-74.956,0-74.326,13.114-74.933,0L2833,1872.266v-.759l51.929-9.16,0,.031h74.74l.575-.106L3034,1849.267l74.956-.008Z" transform="translate(-2833 -1848.78)" fill="#b2b2b2"/>
        </g>
        <g id="Group_178" data-name="Group 178" transform="translate(0 217.259)" opacity="0.2">
          <path id="Path_174" data-name="Path 174" d="M3111.675,1879.98v.759l-2.652.467-74.956.005-74.326,13.113-74.922.005L2833,1903.466v-.761l51.929-9.16,0,.031h74.74l.575-.106L3034,1880.464l74.956-.005Z" transform="translate(-2833 -1879.98)" fill="#b2b2b2"/>
        </g>
        <g id="Group_179" data-name="Group 179" transform="translate(0 225.306)" opacity="0.2">
          <path id="Path_175" data-name="Path 175" d="M3111.675,1911.17v.761l-2.652.468-74.956.005-74.326,13.111-74.922.008L2833,1934.659v-.761l51.929-9.16,0,.031h74.74l.575-.109L3034,1911.654l74.956,0Z" transform="translate(-2833 -1911.17)" fill="#b2b2b2"/>
        </g>
        <g id="Group_180" data-name="Group 180" transform="translate(0 233.358)" opacity="0.2">
          <path id="Path_176" data-name="Path 176" d="M3111.675,1942.37v.759l-2.652.467-74.956.008-74.326,13.111-74.933.005L2833,1965.853v-.759l51.929-9.16,0,.034h74.74l.575-.109L3034,1942.855l74.956-.005Z" transform="translate(-2833 -1942.37)" fill="#b2b2b2"/>
        </g>
        <g id="Group_181" data-name="Group 181" transform="translate(0 241.406)" opacity="0.2">
          <path id="Path_177" data-name="Path 177" d="M3111.675,1973.56v.759l-2.652.468-74.956.008-74.326,13.111-74.922.008L2833,1997.049v-.76l51.929-9.16,0,.031h74.74l.575-.109L3034,1974.045l74.956,0Z" transform="translate(-2833 -1973.56)" fill="#b2b2b2"/>
        </g>
        <g id="Group_182" data-name="Group 182" transform="translate(27.548 249.456)" opacity="0.2">
          <path id="Path_178" data-name="Path 178" d="M3190.887,2004.76v.759l-2.653.467-74.955.005-74.326,13.113-74.922.005-19.944,3.516h-4.327l24.382-4.3,0,.031h74.74l.575-.106,73.753-13.005,74.956,0Z" transform="translate(-2939.76 -2004.76)" fill="#b2b2b2"/>
        </g>
        <g id="Group_183" data-name="Group 183" transform="translate(148.087 257.504)" opacity="0.2">
          <path id="Path_179" data-name="Path 179" d="M3537.5,2035.95v.761l-2.652.468-74.956.005-48.66,8.582h-4.319l52.915-9.331,74.956-.008Z" transform="translate(-3406.91 -2035.95)" fill="#b2b2b2"/>
        </g>
        <g id="Group_184" data-name="Group 184" transform="translate(193.729 265.553)" opacity="0.2">
          <path id="Path_180" data-name="Path 180" d="M3668.737,2067.14v.76l-2.653.468-74.956,0-3.042.536h-4.3l7.274-1.282,74.956-.008Z" transform="translate(-3583.791 -2067.14)" fill="#b2b2b2"/>
        </g>
      </g>
      <g id="Group_222" data-name="Group 222" transform="translate(-7.892 275.212)">
        <g id="Group_186" data-name="Group 186" transform="translate(0 0.001)" opacity="0.2">
          <path id="Path_181" data-name="Path 181" d="M2874.486,1038,2833,1045.315v-.761l37.157-6.554Z" transform="translate(-2833 -1038)" fill="#b2b2b2"/>
        </g>
        <g id="Group_187" data-name="Group 187" transform="translate(0)" opacity="0.2">
          <path id="Path_182" data-name="Path 182" d="M2995.009,1038l-35.268,6.221-74.927.008L2833,1053.366v-.761l51.929-9.16v.031h74.741l.575-.109,30.437-5.367Z" transform="translate(-2833 -1037.999)" fill="#b2b2b2"/>
        </g>
        <g id="Group_188" data-name="Group 188" transform="translate(0 0.001)" opacity="0.2">
          <path id="Path_183" data-name="Path 183" d="M3111.675,1038v.69l-2.652.467-74.956,0-74.326,13.114-74.922,0L2833,1061.414v-.762l51.929-9.16,0,.031h74.74l.575-.106L3034,1038.412l74.956-.005,2.312-.407Z" transform="translate(-2833 -1038)" fill="#b2b2b2"/>
        </g>
        <g id="Group_189" data-name="Group 189" transform="translate(0 7.976)" opacity="0.2">
          <path id="Path_184" data-name="Path 184" d="M3111.675,1068.91v.759l-2.652.467-74.956.008-74.326,13.111-74.922,0L2833,1092.4v-.759l51.929-9.16,0,.031h74.74l.575-.109L3034,1069.394l74.956,0Z" transform="translate(-2833 -1068.91)" fill="#b2b2b2"/>
        </g>
        <g id="Group_190" data-name="Group 190" transform="translate(0 16.027)" opacity="0.2">
          <path id="Path_185" data-name="Path 185" d="M3111.675,1100.11v.759l-2.652.467-74.956.005-74.326,13.113-74.927.005L2833,1123.6v-.762l51.929-9.16v.031h74.741l.575-.106L3034,1100.594l74.956-.005Z" transform="translate(-2833 -1100.11)" fill="#b2b2b2"/>
        </g>
        <g id="Group_191" data-name="Group 191" transform="translate(0 24.076)" opacity="0.2">
          <path id="Path_186" data-name="Path 186" d="M3111.675,1131.3v.759l-2.652.467-74.956.008-74.326,13.111-74.922.008L2833,1154.789v-.761l51.929-9.16,0,.031h74.74l.575-.109L3034,1131.784l74.956,0Z" transform="translate(-2833 -1131.3)" fill="#b2b2b2"/>
        </g>
        <g id="Group_192" data-name="Group 192" transform="translate(0 32.123)" opacity="0.2">
          <path id="Path_187" data-name="Path 187" d="M3111.675,1162.49v.761l-2.652.468-74.956,0-74.326,13.114-74.922,0L2833,1185.977v-.762l51.929-9.16,0,.031h74.74l.575-.106L3034,1162.975l74.956-.008Z" transform="translate(-2833 -1162.49)" fill="#b2b2b2"/>
        </g>
        <g id="Group_193" data-name="Group 193" transform="translate(0 40.174)" opacity="0.2">
          <path id="Path_188" data-name="Path 188" d="M3111.675,1193.69v.761l-2.652.467-74.956.005-74.326,13.111-74.927.008L2833,1217.177v-.761l51.929-9.16v.031h74.741l.575-.109L3034,1194.172l74.956,0Z" transform="translate(-2833 -1193.69)" fill="#b2b2b2"/>
        </g>
        <g id="Group_194" data-name="Group 194" transform="translate(0 48.222)" opacity="0.2">
          <path id="Path_189" data-name="Path 189" d="M3111.675,1224.88v.761l-2.652.467-74.956,0-74.326,13.114-74.922,0L2833,1248.369v-.761l51.929-9.16,0,.031h74.74l.575-.106L3034,1225.367l74.956-.008Z" transform="translate(-2833 -1224.88)" fill="#b2b2b2"/>
        </g>
        <g id="Group_195" data-name="Group 195" transform="translate(0 56.273)" opacity="0.2">
          <path id="Path_190" data-name="Path 190" d="M3111.675,1256.08v.759l-2.652.467-74.956.008-74.326,13.111-74.922,0L2833,1279.566v-.759l51.929-9.16,0,.031h74.74l.575-.109L3034,1256.564l74.956,0Z" transform="translate(-2833 -1256.08)" fill="#b2b2b2"/>
        </g>
        <g id="Group_196" data-name="Group 196" transform="translate(0 64.321)" opacity="0.2">
          <path id="Path_191" data-name="Path 191" d="M3111.675,1287.27v.761l-2.652.468-74.956,0-74.326,13.114-74.927,0L2833,1310.759V1310l51.929-9.16v.031h74.741l.575-.106L3034,1287.757l74.956-.008Z" transform="translate(-2833 -1287.27)" fill="#b2b2b2"/>
        </g>
        <g id="Group_197" data-name="Group 197" transform="translate(0 72.371)" opacity="0.2">
          <path id="Path_192" data-name="Path 192" d="M3111.675,1318.47v.759l-2.652.467-74.956.008-74.326,13.111-74.922,0L2833,1341.956v-.759l51.929-9.16,0,.031h74.74l.575-.108L3034,1318.954l74.956,0Z" transform="translate(-2833 -1318.47)" fill="#b2b2b2"/>
        </g>
        <g id="Group_198" data-name="Group 198" transform="translate(0 80.422)" opacity="0.2">
          <path id="Path_193" data-name="Path 193" d="M3111.675,1349.67v.759l-2.652.467-74.956,0-74.329,13.114-74.92.005L2833,1373.156v-.762l51.929-9.16,0,.031h74.74l.578-.106,73.751-13,74.956-.005Z" transform="translate(-2833 -1349.67)" fill="#b2b2b2"/>
        </g>
        <g id="Group_199" data-name="Group 199" transform="translate(0 88.47)" opacity="0.2">
          <path id="Path_194" data-name="Path 194" d="M3111.675,1380.86v.759l-2.652.468-74.956.008-74.326,13.111-74.922,0L2833,1404.346v-.759l51.929-9.16,0,.031h74.74l.575-.109L3034,1381.344l74.956,0Z" transform="translate(-2833 -1380.86)" fill="#b2b2b2"/>
        </g>
        <g id="Group_200" data-name="Group 200" transform="translate(0 96.518)" opacity="0.2">
          <path id="Path_195" data-name="Path 195" d="M3111.675,1412.05v.761l-2.652.467-74.956,0-74.326,13.114-74.922,0L2833,1435.539v-.761l51.929-9.16,0,.031h74.74l.575-.106L3034,1412.537l74.956-.008Z" transform="translate(-2833 -1412.05)" fill="#b2b2b2"/>
        </g>
        <g id="Group_201" data-name="Group 201" transform="translate(0 104.568)" opacity="0.2">
          <path id="Path_196" data-name="Path 196" d="M3111.675,1443.25v.759l-2.652.468-74.956.008-74.326,13.111-74.922.008L2833,1466.739v-.761l51.929-9.16,0,.031h74.74l.575-.109L3034,1443.734l74.956,0Z" transform="translate(-2833 -1443.25)" fill="#b2b2b2"/>
        </g>
        <g id="Group_202" data-name="Group 202" transform="translate(0 112.616)" opacity="0.2">
          <path id="Path_197" data-name="Path 197" d="M3111.675,1474.44v.761l-2.652.467-74.956,0-74.326,13.111-74.922.008L2833,1497.929v-.761l51.929-9.16,0,.031h74.74l.575-.108,73.753-13,74.956-.008Z" transform="translate(-2833 -1474.44)" fill="#b2b2b2"/>
        </g>
        <g id="Group_203" data-name="Group 203" transform="translate(0 120.667)" opacity="0.2">
          <path id="Path_198" data-name="Path 198" d="M3111.675,1505.64v.759l-2.652.468-74.956.008-74.326,13.111-74.922,0L2833,1529.126v-.759l51.929-9.16,0,.031h74.74l.575-.109L3034,1506.124l74.956,0Z" transform="translate(-2833 -1505.64)" fill="#b2b2b2"/>
        </g>
        <g id="Group_204" data-name="Group 204" transform="translate(0 128.715)" opacity="0.2">
          <path id="Path_199" data-name="Path 199" d="M3111.675,1536.83v.76l-2.652.468-74.956,0-74.326,13.114-74.922,0L2833,1560.319v-.76l51.929-9.16,0,.031h74.74l.575-.106L3034,1537.318l74.956-.008Z" transform="translate(-2833 -1536.83)" fill="#b2b2b2"/>
        </g>
        <g id="Group_205" data-name="Group 205" transform="translate(0 136.766)" opacity="0.2">
          <path id="Path_200" data-name="Path 200" d="M3111.675,1568.03v.761l-2.652.468-74.956.005-74.326,13.111-74.925,0L2833,1591.516v-.761l51.929-9.16,0,.031h74.74l.575-.106L3034,1568.514l74.956,0Z" transform="translate(-2833 -1568.03)" fill="#b2b2b2"/>
        </g>
        <g id="Group_206" data-name="Group 206" transform="translate(0 144.814)" opacity="0.2">
          <path id="Path_201" data-name="Path 201" d="M3111.675,1599.22v.761l-2.652.467-74.956,0-74.326,13.111-74.922.008L2833,1622.709v-.761l51.929-9.16,0,.031h74.74l.575-.109,73.753-13,74.956-.005Z" transform="translate(-2833 -1599.22)" fill="#b2b2b2"/>
        </g>
        <g id="Group_207" data-name="Group 207" transform="translate(0 152.864)" opacity="0.2">
          <path id="Path_202" data-name="Path 202" d="M3111.675,1630.42v.759l-2.652.468-74.956.008-74.326,13.111-74.922.005L2833,1653.906v-.759l51.929-9.16,0,.031h74.74l.575-.109L3034,1630.9l74.956,0Z" transform="translate(-2833 -1630.42)" fill="#b2b2b2"/>
        </g>
        <g id="Group_208" data-name="Group 208" transform="translate(0 160.915)" opacity="0.2">
          <path id="Path_203" data-name="Path 203" d="M3111.675,1661.62v.759l-2.652.467-74.956,0-74.329,13.111-74.922.008L2833,1685.106v-.761l51.929-9.16,0,.031h74.74l.578-.106L3034,1662.1l74.956,0Z" transform="translate(-2833 -1661.62)" fill="#b2b2b2"/>
        </g>
        <g id="Group_209" data-name="Group 209" transform="translate(0 168.963)" opacity="0.2">
          <path id="Path_204" data-name="Path 204" d="M3111.675,1692.81v.759l-2.652.468-74.956.005-74.326,13.113-74.922.005L2833,1716.3v-.761l51.929-9.16,0,.031h74.74l.575-.106L3034,1693.294l74.956,0Z" transform="translate(-2833 -1692.81)" fill="#b2b2b2"/>
        </g>
        <g id="Group_210" data-name="Group 210" transform="translate(0 177.011)" opacity="0.2">
          <path id="Path_205" data-name="Path 205" d="M3111.675,1724v.761l-2.652.467-74.956,0-74.326,13.114-74.922,0L2833,1747.489v-.76l51.929-9.16,0,.031h74.74l.575-.106L3034,1724.488l74.956-.008Z" transform="translate(-2833 -1724)" fill="#b2b2b2"/>
        </g>
        <g id="Group_211" data-name="Group 211" transform="translate(0 185.061)" opacity="0.2">
          <path id="Path_206" data-name="Path 206" d="M3111.675,1755.2v.759l-2.652.468-74.956.008-74.326,13.111-74.933.008L2833,1778.687v-.761l51.929-9.16,0,.034h74.74l.575-.108L3034,1755.686l74.956-.005Z" transform="translate(-2833 -1755.2)" fill="#b2b2b2"/>
        </g>
        <g id="Group_212" data-name="Group 212" transform="translate(0 193.109)" opacity="0.2">
          <path id="Path_207" data-name="Path 207" d="M3111.675,1786.39v.761l-2.652.468-74.956,0-74.326,13.111-74.922.008L2833,1809.877v-.761l51.929-9.16,0,.031h74.74l.575-.108L3034,1786.872l74.956-.005Z" transform="translate(-2833 -1786.39)" fill="#b2b2b2"/>
        </g>
        <g id="Group_213" data-name="Group 213" transform="translate(0 201.16)" opacity="0.2">
          <path id="Path_208" data-name="Path 208" d="M3111.675,1817.59v.759l-2.652.468-74.956.008-74.326,13.111-74.922.005L2833,1841.077v-.759l51.929-9.16,0,.031h74.74l.575-.108L3034,1818.075l74.956-.005Z" transform="translate(-2833 -1817.59)" fill="#b2b2b2"/>
        </g>
        <g id="Group_214" data-name="Group 214" transform="translate(0 209.208)" opacity="0.2">
          <path id="Path_209" data-name="Path 209" d="M3111.675,1848.78v.761l-2.652.467-74.956,0-74.326,13.114-74.933,0L2833,1872.266v-.759l51.929-9.16,0,.031h74.74l.575-.106L3034,1849.267l74.956-.008Z" transform="translate(-2833 -1848.78)" fill="#b2b2b2"/>
        </g>
        <g id="Group_215" data-name="Group 215" transform="translate(0 217.259)" opacity="0.2">
          <path id="Path_210" data-name="Path 210" d="M3111.675,1879.98v.759l-2.652.467-74.956.005-74.326,13.113-74.922.005L2833,1903.466v-.761l51.929-9.16,0,.031h74.74l.575-.106L3034,1880.464l74.956-.005Z" transform="translate(-2833 -1879.98)" fill="#b2b2b2"/>
        </g>
        <g id="Group_216" data-name="Group 216" transform="translate(0 225.306)" opacity="0.2">
          <path id="Path_211" data-name="Path 211" d="M3111.675,1911.17v.761l-2.652.468-74.956.005-74.326,13.111-74.922.008L2833,1934.659v-.761l51.929-9.16,0,.031h74.74l.575-.109L3034,1911.654l74.956,0Z" transform="translate(-2833 -1911.17)" fill="#b2b2b2"/>
        </g>
        <g id="Group_217" data-name="Group 217" transform="translate(0 233.358)" opacity="0.2">
          <path id="Path_212" data-name="Path 212" d="M3111.675,1942.37v.759l-2.652.467-74.956.008-74.326,13.111-74.933.005L2833,1965.853v-.759l51.929-9.16,0,.034h74.74l.575-.109L3034,1942.855l74.956-.005Z" transform="translate(-2833 -1942.37)" fill="#b2b2b2"/>
        </g>
        <g id="Group_218" data-name="Group 218" transform="translate(0 241.406)" opacity="0.2">
          <path id="Path_213" data-name="Path 213" d="M3111.675,1973.56v.759l-2.652.468-74.956.008-74.326,13.111-74.922.008L2833,1997.049v-.76l51.929-9.16,0,.031h74.74l.575-.109L3034,1974.045l74.956,0Z" transform="translate(-2833 -1973.56)" fill="#b2b2b2"/>
        </g>
        <g id="Group_219" data-name="Group 219" transform="translate(27.548 249.456)" opacity="0.2">
          <path id="Path_214" data-name="Path 214" d="M3190.887,2004.76v.759l-2.653.467-74.955.005-74.326,13.113-74.922.005-19.944,3.516h-4.327l24.382-4.3,0,.031h74.74l.575-.106,73.753-13.005,74.956,0Z" transform="translate(-2939.76 -2004.76)" fill="#b2b2b2"/>
        </g>
        <g id="Group_220" data-name="Group 220" transform="translate(148.087 257.504)" opacity="0.2">
          <path id="Path_215" data-name="Path 215" d="M3537.5,2035.95v.761l-2.652.468-74.956.005-48.66,8.582h-4.319l52.915-9.331,74.956-.008Z" transform="translate(-3406.91 -2035.95)" fill="#b2b2b2"/>
        </g>
        <g id="Group_221" data-name="Group 221" transform="translate(193.729 265.553)" opacity="0.2">
          <path id="Path_216" data-name="Path 216" d="M3668.737,2067.14v.76l-2.653.468-74.956,0-3.042.536h-4.3l7.274-1.282,74.956-.008Z" transform="translate(-3583.791 -2067.14)" fill="#b2b2b2"/>
        </g>
      </g>
      <g id="Group_259" data-name="Group 259" transform="translate(-7.892 541.547)">
        <g id="Group_223" data-name="Group 223" transform="translate(0 0.001)" opacity="0.2">
          <path id="Path_217" data-name="Path 217" d="M2874.486,1038,2833,1045.315v-.761l37.157-6.554Z" transform="translate(-2833 -1038)" fill="#b2b2b2"/>
        </g>
        <g id="Group_224" data-name="Group 224" transform="translate(0)" opacity="0.2">
          <path id="Path_218" data-name="Path 218" d="M2995.009,1038l-35.268,6.221-74.927.008L2833,1053.366v-.761l51.929-9.16v.031h74.741l.575-.109,30.437-5.367Z" transform="translate(-2833 -1037.999)" fill="#b2b2b2"/>
        </g>
        <g id="Group_225" data-name="Group 225" transform="translate(0 0.001)" opacity="0.2">
          <path id="Path_219" data-name="Path 219" d="M3111.675,1038v.69l-2.652.467-74.956,0-74.326,13.114-74.922,0L2833,1061.414v-.762l51.929-9.16,0,.031h74.74l.575-.106L3034,1038.412l74.956-.005,2.312-.407Z" transform="translate(-2833 -1038)" fill="#b2b2b2"/>
        </g>
        <g id="Group_226" data-name="Group 226" transform="translate(0 7.976)" opacity="0.2">
          <path id="Path_220" data-name="Path 220" d="M3111.675,1068.91v.759l-2.652.467-74.956.008-74.326,13.111-74.922,0L2833,1092.4v-.759l51.929-9.16,0,.031h74.74l.575-.109L3034,1069.394l74.956,0Z" transform="translate(-2833 -1068.91)" fill="#b2b2b2"/>
        </g>
        <g id="Group_227" data-name="Group 227" transform="translate(0 16.027)" opacity="0.2">
          <path id="Path_221" data-name="Path 221" d="M3111.675,1100.11v.759l-2.652.467-74.956.005-74.326,13.113-74.927.005L2833,1123.6v-.762l51.929-9.16v.031h74.741l.575-.106L3034,1100.594l74.956-.005Z" transform="translate(-2833 -1100.11)" fill="#b2b2b2"/>
        </g>
        <g id="Group_228" data-name="Group 228" transform="translate(0 24.076)" opacity="0.2">
          <path id="Path_222" data-name="Path 222" d="M3111.675,1131.3v.759l-2.652.467-74.956.008-74.326,13.111-74.922.008L2833,1154.789v-.761l51.929-9.16,0,.031h74.74l.575-.109L3034,1131.784l74.956,0Z" transform="translate(-2833 -1131.3)" fill="#b2b2b2"/>
        </g>
        <g id="Group_229" data-name="Group 229" transform="translate(0 32.123)" opacity="0.2">
          <path id="Path_223" data-name="Path 223" d="M3111.675,1162.49v.761l-2.652.468-74.956,0-74.326,13.114-74.922,0L2833,1185.977v-.762l51.929-9.16,0,.031h74.74l.575-.106L3034,1162.975l74.956-.008Z" transform="translate(-2833 -1162.49)" fill="#b2b2b2"/>
        </g>
        <g id="Group_230" data-name="Group 230" transform="translate(0 40.174)" opacity="0.2">
          <path id="Path_224" data-name="Path 224" d="M3111.675,1193.69v.761l-2.652.467-74.956.005-74.326,13.111-74.927.008L2833,1217.177v-.761l51.929-9.16v.031h74.741l.575-.109L3034,1194.172l74.956,0Z" transform="translate(-2833 -1193.69)" fill="#b2b2b2"/>
        </g>
        <g id="Group_231" data-name="Group 231" transform="translate(0 48.222)" opacity="0.2">
          <path id="Path_225" data-name="Path 225" d="M3111.675,1224.88v.761l-2.652.467-74.956,0-74.326,13.114-74.922,0L2833,1248.369v-.761l51.929-9.16,0,.031h74.74l.575-.106L3034,1225.367l74.956-.008Z" transform="translate(-2833 -1224.88)" fill="#b2b2b2"/>
        </g>
        <g id="Group_232" data-name="Group 232" transform="translate(0 56.273)" opacity="0.2">
          <path id="Path_226" data-name="Path 226" d="M3111.675,1256.08v.759l-2.652.467-74.956.008-74.326,13.111-74.922,0L2833,1279.566v-.759l51.929-9.16,0,.031h74.74l.575-.109L3034,1256.564l74.956,0Z" transform="translate(-2833 -1256.08)" fill="#b2b2b2"/>
        </g>
        <g id="Group_233" data-name="Group 233" transform="translate(0 64.321)" opacity="0.2">
          <path id="Path_227" data-name="Path 227" d="M3111.675,1287.27v.761l-2.652.468-74.956,0-74.326,13.114-74.927,0L2833,1310.759V1310l51.929-9.16v.031h74.741l.575-.106L3034,1287.757l74.956-.008Z" transform="translate(-2833 -1287.27)" fill="#b2b2b2"/>
        </g>
        <g id="Group_234" data-name="Group 234" transform="translate(0 72.371)" opacity="0.2">
          <path id="Path_228" data-name="Path 228" d="M3111.675,1318.47v.759l-2.652.467-74.956.008-74.326,13.111-74.922,0L2833,1341.956v-.759l51.929-9.16,0,.031h74.74l.575-.108L3034,1318.954l74.956,0Z" transform="translate(-2833 -1318.47)" fill="#b2b2b2"/>
        </g>
        <g id="Group_235" data-name="Group 235" transform="translate(0 80.422)" opacity="0.2">
          <path id="Path_229" data-name="Path 229" d="M3111.675,1349.67v.759l-2.652.467-74.956,0-74.329,13.114-74.92.005L2833,1373.156v-.762l51.929-9.16,0,.031h74.74l.578-.106,73.751-13,74.956-.005Z" transform="translate(-2833 -1349.67)" fill="#b2b2b2"/>
        </g>
        <g id="Group_236" data-name="Group 236" transform="translate(0 88.47)" opacity="0.2">
          <path id="Path_230" data-name="Path 230" d="M3111.675,1380.86v.759l-2.652.468-74.956.008-74.326,13.111-74.922,0L2833,1404.346v-.759l51.929-9.16,0,.031h74.74l.575-.109L3034,1381.344l74.956,0Z" transform="translate(-2833 -1380.86)" fill="#b2b2b2"/>
        </g>
        <g id="Group_237" data-name="Group 237" transform="translate(0 96.518)" opacity="0.2">
          <path id="Path_231" data-name="Path 231" d="M3111.675,1412.05v.761l-2.652.467-74.956,0-74.326,13.114-74.922,0L2833,1435.539v-.761l51.929-9.16,0,.031h74.74l.575-.106L3034,1412.537l74.956-.008Z" transform="translate(-2833 -1412.05)" fill="#b2b2b2"/>
        </g>
        <g id="Group_238" data-name="Group 238" transform="translate(0 104.568)" opacity="0.2">
          <path id="Path_232" data-name="Path 232" d="M3111.675,1443.25v.759l-2.652.468-74.956.008-74.326,13.111-74.922.008L2833,1466.739v-.761l51.929-9.16,0,.031h74.74l.575-.109L3034,1443.734l74.956,0Z" transform="translate(-2833 -1443.25)" fill="#b2b2b2"/>
        </g>
        <g id="Group_239" data-name="Group 239" transform="translate(0 112.616)" opacity="0.2">
          <path id="Path_233" data-name="Path 233" d="M3111.675,1474.44v.761l-2.652.467-74.956,0-74.326,13.111-74.922.008L2833,1497.929v-.761l51.929-9.16,0,.031h74.74l.575-.108,73.753-13,74.956-.008Z" transform="translate(-2833 -1474.44)" fill="#b2b2b2"/>
        </g>
        <g id="Group_240" data-name="Group 240" transform="translate(0 120.667)" opacity="0.2">
          <path id="Path_234" data-name="Path 234" d="M3111.675,1505.64v.759l-2.652.468-74.956.008-74.326,13.111-74.922,0L2833,1529.126v-.759l51.929-9.16,0,.031h74.74l.575-.109L3034,1506.124l74.956,0Z" transform="translate(-2833 -1505.64)" fill="#b2b2b2"/>
        </g>
        <g id="Group_241" data-name="Group 241" transform="translate(0 128.715)" opacity="0.2">
          <path id="Path_235" data-name="Path 235" d="M3111.675,1536.83v.76l-2.652.468-74.956,0-74.326,13.114-74.922,0L2833,1560.319v-.76l51.929-9.16,0,.031h74.74l.575-.106L3034,1537.318l74.956-.008Z" transform="translate(-2833 -1536.83)" fill="#b2b2b2"/>
        </g>
        <g id="Group_242" data-name="Group 242" transform="translate(0 136.766)" opacity="0.2">
          <path id="Path_236" data-name="Path 236" d="M3111.675,1568.03v.761l-2.652.468-74.956.005-74.326,13.111-74.925,0L2833,1591.516v-.761l51.929-9.16,0,.031h74.74l.575-.106L3034,1568.514l74.956,0Z" transform="translate(-2833 -1568.03)" fill="#b2b2b2"/>
        </g>
        <g id="Group_243" data-name="Group 243" transform="translate(0 144.814)" opacity="0.2">
          <path id="Path_237" data-name="Path 237" d="M3111.675,1599.22v.761l-2.652.467-74.956,0-74.326,13.111-74.922.008L2833,1622.709v-.761l51.929-9.16,0,.031h74.74l.575-.109,73.753-13,74.956-.005Z" transform="translate(-2833 -1599.22)" fill="#b2b2b2"/>
        </g>
        <g id="Group_244" data-name="Group 244" transform="translate(0 152.864)" opacity="0.2">
          <path id="Path_238" data-name="Path 238" d="M3111.675,1630.42v.759l-2.652.468-74.956.008-74.326,13.111-74.922.005L2833,1653.906v-.759l51.929-9.16,0,.031h74.74l.575-.109L3034,1630.9l74.956,0Z" transform="translate(-2833 -1630.42)" fill="#b2b2b2"/>
        </g>
        <g id="Group_245" data-name="Group 245" transform="translate(0 160.915)" opacity="0.2">
          <path id="Path_239" data-name="Path 239" d="M3111.675,1661.62v.759l-2.652.467-74.956,0-74.329,13.111-74.922.008L2833,1685.106v-.761l51.929-9.16,0,.031h74.74l.578-.106L3034,1662.1l74.956,0Z" transform="translate(-2833 -1661.62)" fill="#b2b2b2"/>
        </g>
        <g id="Group_246" data-name="Group 246" transform="translate(0 168.963)" opacity="0.2">
          <path id="Path_240" data-name="Path 240" d="M3111.675,1692.81v.759l-2.652.468-74.956.005-74.326,13.113-74.922.005L2833,1716.3v-.761l51.929-9.16,0,.031h74.74l.575-.106L3034,1693.294l74.956,0Z" transform="translate(-2833 -1692.81)" fill="#b2b2b2"/>
        </g>
        <g id="Group_247" data-name="Group 247" transform="translate(0 177.011)" opacity="0.2">
          <path id="Path_241" data-name="Path 241" d="M3111.675,1724v.761l-2.652.467-74.956,0-74.326,13.114-74.922,0L2833,1747.489v-.76l51.929-9.16,0,.031h74.74l.575-.106L3034,1724.488l74.956-.008Z" transform="translate(-2833 -1724)" fill="#b2b2b2"/>
        </g>
        <g id="Group_248" data-name="Group 248" transform="translate(0 185.061)" opacity="0.2">
          <path id="Path_242" data-name="Path 242" d="M3111.675,1755.2v.759l-2.652.468-74.956.008-74.326,13.111-74.933.008L2833,1778.687v-.761l51.929-9.16,0,.034h74.74l.575-.108L3034,1755.686l74.956-.005Z" transform="translate(-2833 -1755.2)" fill="#b2b2b2"/>
        </g>
        <g id="Group_249" data-name="Group 249" transform="translate(0 193.109)" opacity="0.2">
          <path id="Path_243" data-name="Path 243" d="M3111.675,1786.39v.761l-2.652.468-74.956,0-74.326,13.111-74.922.008L2833,1809.877v-.761l51.929-9.16,0,.031h74.74l.575-.108L3034,1786.872l74.956-.005Z" transform="translate(-2833 -1786.39)" fill="#b2b2b2"/>
        </g>
        <g id="Group_250" data-name="Group 250" transform="translate(0 201.16)" opacity="0.2">
          <path id="Path_244" data-name="Path 244" d="M3111.675,1817.59v.759l-2.652.468-74.956.008-74.326,13.111-74.922.005L2833,1841.077v-.759l51.929-9.16,0,.031h74.74l.575-.108L3034,1818.075l74.956-.005Z" transform="translate(-2833 -1817.59)" fill="#b2b2b2"/>
        </g>
        <g id="Group_251" data-name="Group 251" transform="translate(0 209.208)" opacity="0.2">
          <path id="Path_245" data-name="Path 245" d="M3111.675,1848.78v.761l-2.652.467-74.956,0-74.326,13.114-74.933,0L2833,1872.266v-.759l51.929-9.16,0,.031h74.74l.575-.106L3034,1849.267l74.956-.008Z" transform="translate(-2833 -1848.78)" fill="#b2b2b2"/>
        </g>
        <g id="Group_252" data-name="Group 252" transform="translate(0 217.259)" opacity="0.2">
          <path id="Path_246" data-name="Path 246" d="M3111.675,1879.98v.759l-2.652.467-74.956.005-74.326,13.113-74.922.005L2833,1903.466v-.761l51.929-9.16,0,.031h74.74l.575-.106L3034,1880.464l74.956-.005Z" transform="translate(-2833 -1879.98)" fill="#b2b2b2"/>
        </g>
        <g id="Group_253" data-name="Group 253" transform="translate(0 225.306)" opacity="0.2">
          <path id="Path_247" data-name="Path 247" d="M3111.675,1911.17v.761l-2.652.468-74.956.005-74.326,13.111-74.922.008L2833,1934.659v-.761l51.929-9.16,0,.031h74.74l.575-.109L3034,1911.654l74.956,0Z" transform="translate(-2833 -1911.17)" fill="#b2b2b2"/>
        </g>
        <g id="Group_254" data-name="Group 254" transform="translate(0 233.358)" opacity="0.2">
          <path id="Path_248" data-name="Path 248" d="M3111.675,1942.37v.759l-2.652.467-74.956.008-74.326,13.111-74.933.005L2833,1965.853v-.759l51.929-9.16,0,.034h74.74l.575-.109L3034,1942.855l74.956-.005Z" transform="translate(-2833 -1942.37)" fill="#b2b2b2"/>
        </g>
        <g id="Group_255" data-name="Group 255" transform="translate(0 241.406)" opacity="0.2">
          <path id="Path_249" data-name="Path 249" d="M3111.675,1973.56v.759l-2.652.468-74.956.008-74.326,13.111-74.922.008L2833,1997.049v-.76l51.929-9.16,0,.031h74.74l.575-.109L3034,1974.045l74.956,0Z" transform="translate(-2833 -1973.56)" fill="#b2b2b2"/>
        </g>
        <g id="Group_256" data-name="Group 256" transform="translate(27.548 249.456)" opacity="0.2">
          <path id="Path_250" data-name="Path 250" d="M3190.887,2004.76v.759l-2.653.467-74.955.005-74.326,13.113-74.922.005-19.944,3.516h-4.327l24.382-4.3,0,.031h74.74l.575-.106,73.753-13.005,74.956,0Z" transform="translate(-2939.76 -2004.76)" fill="#b2b2b2"/>
        </g>
        <g id="Group_257" data-name="Group 257" transform="translate(148.087 257.504)" opacity="0.2">
          <path id="Path_251" data-name="Path 251" d="M3537.5,2035.95v.761l-2.652.468-74.956.005-48.66,8.582h-4.319l52.915-9.331,74.956-.008Z" transform="translate(-3406.91 -2035.95)" fill="#b2b2b2"/>
        </g>
        <g id="Group_258" data-name="Group 258" transform="translate(193.729 265.553)" opacity="0.2">
          <path id="Path_252" data-name="Path 252" d="M3668.737,2067.14v.76l-2.653.468-74.956,0-3.042.536h-4.3l7.274-1.282,74.956-.008Z" transform="translate(-3583.791 -2067.14)" fill="#b2b2b2"/>
        </g>
      </g>
      <g id="Group_296" data-name="Group 296" transform="translate(-7.892 806.895)">
        <g id="Group_260" data-name="Group 260" transform="translate(0 0.001)" opacity="0.2">
          <path id="Path_253" data-name="Path 253" d="M2874.486,1038,2833,1045.315v-.761l37.157-6.554Z" transform="translate(-2833 -1038)" fill="#b2b2b2"/>
        </g>
        <g id="Group_261" data-name="Group 261" transform="translate(0)" opacity="0.2">
          <path id="Path_254" data-name="Path 254" d="M2995.009,1038l-35.268,6.221-74.927.008L2833,1053.366v-.761l51.929-9.16v.031h74.741l.575-.109,30.437-5.367Z" transform="translate(-2833 -1037.999)" fill="#b2b2b2"/>
        </g>
        <g id="Group_262" data-name="Group 262" transform="translate(0 0.001)" opacity="0.2">
          <path id="Path_255" data-name="Path 255" d="M3111.675,1038v.69l-2.652.467-74.956,0-74.326,13.114-74.922,0L2833,1061.414v-.762l51.929-9.16,0,.031h74.74l.575-.106L3034,1038.412l74.956-.005,2.312-.407Z" transform="translate(-2833 -1038)" fill="#b2b2b2"/>
        </g>
        <g id="Group_263" data-name="Group 263" transform="translate(0 7.976)" opacity="0.2">
          <path id="Path_256" data-name="Path 256" d="M3111.675,1068.91v.759l-2.652.467-74.956.008-74.326,13.111-74.922,0L2833,1092.4v-.759l51.929-9.16,0,.031h74.74l.575-.109L3034,1069.394l74.956,0Z" transform="translate(-2833 -1068.91)" fill="#b2b2b2"/>
        </g>
        <g id="Group_264" data-name="Group 264" transform="translate(0 16.027)" opacity="0.2">
          <path id="Path_257" data-name="Path 257" d="M3111.675,1100.11v.759l-2.652.467-74.956.005-74.326,13.113-74.927.005L2833,1123.6v-.762l51.929-9.16v.031h74.741l.575-.106L3034,1100.594l74.956-.005Z" transform="translate(-2833 -1100.11)" fill="#b2b2b2"/>
        </g>
        <g id="Group_265" data-name="Group 265" transform="translate(0 24.076)" opacity="0.2">
          <path id="Path_258" data-name="Path 258" d="M3111.675,1131.3v.759l-2.652.467-74.956.008-74.326,13.111-74.922.008L2833,1154.789v-.761l51.929-9.16,0,.031h74.74l.575-.109L3034,1131.784l74.956,0Z" transform="translate(-2833 -1131.3)" fill="#b2b2b2"/>
        </g>
        <g id="Group_266" data-name="Group 266" transform="translate(0 32.123)" opacity="0.2">
          <path id="Path_259" data-name="Path 259" d="M3111.675,1162.49v.761l-2.652.468-74.956,0-74.326,13.114-74.922,0L2833,1185.977v-.762l51.929-9.16,0,.031h74.74l.575-.106L3034,1162.975l74.956-.008Z" transform="translate(-2833 -1162.49)" fill="#b2b2b2"/>
        </g>
        <g id="Group_267" data-name="Group 267" transform="translate(0 40.174)" opacity="0.2">
          <path id="Path_260" data-name="Path 260" d="M3111.675,1193.69v.761l-2.652.467-74.956.005-74.326,13.111-74.927.008L2833,1217.177v-.761l51.929-9.16v.031h74.741l.575-.109L3034,1194.172l74.956,0Z" transform="translate(-2833 -1193.69)" fill="#b2b2b2"/>
        </g>
        <g id="Group_268" data-name="Group 268" transform="translate(0 48.222)" opacity="0.2">
          <path id="Path_261" data-name="Path 261" d="M3111.675,1224.88v.761l-2.652.467-74.956,0-74.326,13.114-74.922,0L2833,1248.369v-.761l51.929-9.16,0,.031h74.74l.575-.106L3034,1225.367l74.956-.008Z" transform="translate(-2833 -1224.88)" fill="#b2b2b2"/>
        </g>
        <g id="Group_269" data-name="Group 269" transform="translate(0 56.273)" opacity="0.2">
          <path id="Path_262" data-name="Path 262" d="M3111.675,1256.08v.759l-2.652.467-74.956.008-74.326,13.111-74.922,0L2833,1279.566v-.759l51.929-9.16,0,.031h74.74l.575-.109L3034,1256.564l74.956,0Z" transform="translate(-2833 -1256.08)" fill="#b2b2b2"/>
        </g>
        <g id="Group_270" data-name="Group 270" transform="translate(0 64.321)" opacity="0.2">
          <path id="Path_263" data-name="Path 263" d="M3111.675,1287.27v.761l-2.652.468-74.956,0-74.326,13.114-74.927,0L2833,1310.759V1310l51.929-9.16v.031h74.741l.575-.106L3034,1287.757l74.956-.008Z" transform="translate(-2833 -1287.27)" fill="#b2b2b2"/>
        </g>
        <g id="Group_271" data-name="Group 271" transform="translate(0 72.371)" opacity="0.2">
          <path id="Path_264" data-name="Path 264" d="M3111.675,1318.47v.759l-2.652.467-74.956.008-74.326,13.111-74.922,0L2833,1341.956v-.759l51.929-9.16,0,.031h74.74l.575-.108L3034,1318.954l74.956,0Z" transform="translate(-2833 -1318.47)" fill="#b2b2b2"/>
        </g>
        <g id="Group_272" data-name="Group 272" transform="translate(0 80.422)" opacity="0.2">
          <path id="Path_265" data-name="Path 265" d="M3111.675,1349.67v.759l-2.652.467-74.956,0-74.329,13.114-74.92.005L2833,1373.156v-.762l51.929-9.16,0,.031h74.74l.578-.106,73.751-13,74.956-.005Z" transform="translate(-2833 -1349.67)" fill="#b2b2b2"/>
        </g>
        <g id="Group_273" data-name="Group 273" transform="translate(0 88.47)" opacity="0.2">
          <path id="Path_266" data-name="Path 266" d="M3111.675,1380.86v.759l-2.652.468-74.956.008-74.326,13.111-74.922,0L2833,1404.346v-.759l51.929-9.16,0,.031h74.74l.575-.109L3034,1381.344l74.956,0Z" transform="translate(-2833 -1380.86)" fill="#b2b2b2"/>
        </g>
        <g id="Group_274" data-name="Group 274" transform="translate(0 96.518)" opacity="0.2">
          <path id="Path_267" data-name="Path 267" d="M3111.675,1412.05v.761l-2.652.467-74.956,0-74.326,13.114-74.922,0L2833,1435.539v-.761l51.929-9.16,0,.031h74.74l.575-.106L3034,1412.537l74.956-.008Z" transform="translate(-2833 -1412.05)" fill="#b2b2b2"/>
        </g>
        <g id="Group_275" data-name="Group 275" transform="translate(0 104.568)" opacity="0.2">
          <path id="Path_268" data-name="Path 268" d="M3111.675,1443.25v.759l-2.652.468-74.956.008-74.326,13.111-74.922.008L2833,1466.739v-.761l51.929-9.16,0,.031h74.74l.575-.109L3034,1443.734l74.956,0Z" transform="translate(-2833 -1443.25)" fill="#b2b2b2"/>
        </g>
        <g id="Group_276" data-name="Group 276" transform="translate(0 112.616)" opacity="0.2">
          <path id="Path_269" data-name="Path 269" d="M3111.675,1474.44v.761l-2.652.467-74.956,0-74.326,13.111-74.922.008L2833,1497.929v-.761l51.929-9.16,0,.031h74.74l.575-.108,73.753-13,74.956-.008Z" transform="translate(-2833 -1474.44)" fill="#b2b2b2"/>
        </g>
        <g id="Group_277" data-name="Group 277" transform="translate(0 120.667)" opacity="0.2">
          <path id="Path_270" data-name="Path 270" d="M3111.675,1505.64v.759l-2.652.468-74.956.008-74.326,13.111-74.922,0L2833,1529.126v-.759l51.929-9.16,0,.031h74.74l.575-.109L3034,1506.124l74.956,0Z" transform="translate(-2833 -1505.64)" fill="#b2b2b2"/>
        </g>
        <g id="Group_278" data-name="Group 278" transform="translate(0 128.715)" opacity="0.2">
          <path id="Path_271" data-name="Path 271" d="M3111.675,1536.83v.76l-2.652.468-74.956,0-74.326,13.114-74.922,0L2833,1560.319v-.76l51.929-9.16,0,.031h74.74l.575-.106L3034,1537.318l74.956-.008Z" transform="translate(-2833 -1536.83)" fill="#b2b2b2"/>
        </g>
        <g id="Group_279" data-name="Group 279" transform="translate(0 136.766)" opacity="0.2">
          <path id="Path_272" data-name="Path 272" d="M3111.675,1568.03v.761l-2.652.468-74.956.005-74.326,13.111-74.925,0L2833,1591.516v-.761l51.929-9.16,0,.031h74.74l.575-.106L3034,1568.514l74.956,0Z" transform="translate(-2833 -1568.03)" fill="#b2b2b2"/>
        </g>
        <g id="Group_280" data-name="Group 280" transform="translate(0 144.814)" opacity="0.2">
          <path id="Path_273" data-name="Path 273" d="M3111.675,1599.22v.761l-2.652.467-74.956,0-74.326,13.111-74.922.008L2833,1622.709v-.761l51.929-9.16,0,.031h74.74l.575-.109,73.753-13,74.956-.005Z" transform="translate(-2833 -1599.22)" fill="#b2b2b2"/>
        </g>
        <g id="Group_281" data-name="Group 281" transform="translate(0 152.864)" opacity="0.2">
          <path id="Path_274" data-name="Path 274" d="M3111.675,1630.42v.759l-2.652.468-74.956.008-74.326,13.111-74.922.005L2833,1653.906v-.759l51.929-9.16,0,.031h74.74l.575-.109L3034,1630.9l74.956,0Z" transform="translate(-2833 -1630.42)" fill="#b2b2b2"/>
        </g>
        <g id="Group_282" data-name="Group 282" transform="translate(0 160.915)" opacity="0.2">
          <path id="Path_275" data-name="Path 275" d="M3111.675,1661.62v.759l-2.652.467-74.956,0-74.329,13.111-74.922.008L2833,1685.106v-.761l51.929-9.16,0,.031h74.74l.578-.106L3034,1662.1l74.956,0Z" transform="translate(-2833 -1661.62)" fill="#b2b2b2"/>
        </g>
        <g id="Group_283" data-name="Group 283" transform="translate(0 168.963)" opacity="0.2">
          <path id="Path_276" data-name="Path 276" d="M3111.675,1692.81v.759l-2.652.468-74.956.005-74.326,13.113-74.922.005L2833,1716.3v-.761l51.929-9.16,0,.031h74.74l.575-.106L3034,1693.294l74.956,0Z" transform="translate(-2833 -1692.81)" fill="#b2b2b2"/>
        </g>
        <g id="Group_284" data-name="Group 284" transform="translate(0 177.011)" opacity="0.2">
          <path id="Path_277" data-name="Path 277" d="M3111.675,1724v.761l-2.652.467-74.956,0-74.326,13.114-74.922,0L2833,1747.489v-.76l51.929-9.16,0,.031h74.74l.575-.106L3034,1724.488l74.956-.008Z" transform="translate(-2833 -1724)" fill="#b2b2b2"/>
        </g>
        <g id="Group_285" data-name="Group 285" transform="translate(0 185.061)" opacity="0.2">
          <path id="Path_278" data-name="Path 278" d="M3111.675,1755.2v.759l-2.652.468-74.956.008-74.326,13.111-74.933.008L2833,1778.687v-.761l51.929-9.16,0,.034h74.74l.575-.108L3034,1755.686l74.956-.005Z" transform="translate(-2833 -1755.2)" fill="#b2b2b2"/>
        </g>
        <g id="Group_286" data-name="Group 286" transform="translate(0 193.109)" opacity="0.2">
          <path id="Path_279" data-name="Path 279" d="M3111.675,1786.39v.761l-2.652.468-74.956,0-74.326,13.111-74.922.008L2833,1809.877v-.761l51.929-9.16,0,.031h74.74l.575-.108L3034,1786.872l74.956-.005Z" transform="translate(-2833 -1786.39)" fill="#b2b2b2"/>
        </g>
        <g id="Group_287" data-name="Group 287" transform="translate(0 201.16)" opacity="0.2">
          <path id="Path_280" data-name="Path 280" d="M3111.675,1817.59v.759l-2.652.468-74.956.008-74.326,13.111-74.922.005L2833,1841.077v-.759l51.929-9.16,0,.031h74.74l.575-.108L3034,1818.075l74.956-.005Z" transform="translate(-2833 -1817.59)" fill="#b2b2b2"/>
        </g>
        <g id="Group_288" data-name="Group 288" transform="translate(0 209.208)" opacity="0.2">
          <path id="Path_281" data-name="Path 281" d="M3111.675,1848.78v.761l-2.652.467-74.956,0-74.326,13.114-74.933,0L2833,1872.266v-.759l51.929-9.16,0,.031h74.74l.575-.106L3034,1849.267l74.956-.008Z" transform="translate(-2833 -1848.78)" fill="#b2b2b2"/>
        </g>
        <g id="Group_289" data-name="Group 289" transform="translate(0 217.259)" opacity="0.2">
          <path id="Path_282" data-name="Path 282" d="M3111.675,1879.98v.759l-2.652.467-74.956.005-74.326,13.113-74.922.005L2833,1903.466v-.761l51.929-9.16,0,.031h74.74l.575-.106L3034,1880.464l74.956-.005Z" transform="translate(-2833 -1879.98)" fill="#b2b2b2"/>
        </g>
        <g id="Group_290" data-name="Group 290" transform="translate(0 225.306)" opacity="0.2">
          <path id="Path_283" data-name="Path 283" d="M3111.675,1911.17v.761l-2.652.468-74.956.005-74.326,13.111-74.922.008L2833,1934.659v-.761l51.929-9.16,0,.031h74.74l.575-.109L3034,1911.654l74.956,0Z" transform="translate(-2833 -1911.17)" fill="#b2b2b2"/>
        </g>
        <g id="Group_291" data-name="Group 291" transform="translate(0 233.358)" opacity="0.2">
          <path id="Path_284" data-name="Path 284" d="M3111.675,1942.37v.759l-2.652.467-74.956.008-74.326,13.111-74.933.005L2833,1965.853v-.759l51.929-9.16,0,.034h74.74l.575-.109L3034,1942.855l74.956-.005Z" transform="translate(-2833 -1942.37)" fill="#b2b2b2"/>
        </g>
        <g id="Group_292" data-name="Group 292" transform="translate(0 241.406)" opacity="0.2">
          <path id="Path_285" data-name="Path 285" d="M3111.675,1973.56v.759l-2.652.468-74.956.008-74.326,13.111-74.922.008L2833,1997.049v-.76l51.929-9.16,0,.031h74.74l.575-.109L3034,1974.045l74.956,0Z" transform="translate(-2833 -1973.56)" fill="#b2b2b2"/>
        </g>
        <g id="Group_293" data-name="Group 293" transform="translate(27.548 249.456)" opacity="0.2">
          <path id="Path_286" data-name="Path 286" d="M3190.887,2004.76v.759l-2.653.467-74.955.005-74.326,13.113-74.922.005-19.944,3.516h-4.327l24.382-4.3,0,.031h74.74l.575-.106,73.753-13.005,74.956,0Z" transform="translate(-2939.76 -2004.76)" fill="#b2b2b2"/>
        </g>
        <g id="Group_294" data-name="Group 294" transform="translate(148.087 257.504)" opacity="0.2">
          <path id="Path_287" data-name="Path 287" d="M3537.5,2035.95v.761l-2.652.468-74.956.005-48.66,8.582h-4.319l52.915-9.331,74.956-.008Z" transform="translate(-3406.91 -2035.95)" fill="#b2b2b2"/>
        </g>
        <g id="Group_295" data-name="Group 295" transform="translate(193.729 265.553)" opacity="0.2">
          <path id="Path_288" data-name="Path 288" d="M3668.737,2067.14v.76l-2.653.468-74.956,0-3.042.536h-4.3l7.274-1.282,74.956-.008Z" transform="translate(-3583.791 -2067.14)" fill="#b2b2b2"/>
        </g>
      </g>
    </g>
  </g>
</svg>
