<svg xmlns="http://www.w3.org/2000/svg" width="37.198" height="21.767" viewBox="0 0 37.198 21.767"><defs><style>.a{fill:#0082c3;}.b{fill:#424453;}</style></defs><path class="a" d="M33.645,18.04H1.24a1.24,1.24,0,1,1,0-2.48H33.645a1.24,1.24,0,0,1,0,2.48Z" transform="translate(0 -5.913)"/><path class="b" d="M30.173,2.48H1.24A1.24,1.24,0,1,1,1.24,0H30.173a1.24,1.24,0,0,1,0,2.48Z"/><path class="b" d="M35.958,33.59H1.24a1.24,1.24,0,1,1,0-2.48H35.958a1.24,1.24,0,1,1,0,2.48Z" transform="translate(0 -11.823)"/></svg>