<svg xmlns="http://www.w3.org/2000/svg" width="24.361" height="19.819" viewBox="0 0 24.361 19.819"><defs><style>.a{fill:#efebe3;}</style></defs><path class="a" d="M0,17.532a14.155,14.155,0,0,0,7.664,2.249,14.137,14.137,0,0,0,14.2-14.869,10.179,10.179,0,0,0,2.494-2.585,9.966,9.966,0,0,1-2.873.783,4.994,4.994,0,0,0,2.2-2.766,9.971,9.971,0,0,1-3.2,1.215,5,5,0,0,0-8.527,4.557A14.2,14.2,0,0,1,1.695.9,5,5,0,0,0,3.246,7.571,4.93,4.93,0,0,1,.981,6.942a5,5,0,0,0,4.008,4.967,5.02,5.02,0,0,1-2.26.085A5,5,0,0,0,7.4,15.464,10.03,10.03,0,0,1,0,17.532Z" transform="translate(0 0.038)"/></svg>