<svg xmlns="http://www.w3.org/2000/svg" width="63.893" height="36.862" viewBox="0 0 63.893 36.862"><defs><style>.a,.f{fill:none;}.a{stroke:#70706e;}.b{fill:#70706e;}.c{fill:#098041;}.d{fill:#e97626;}.e{stroke:none;}</style></defs><g class="a" transform="translate(0 0)"><rect class="e" width="63.893" height="36.862" rx="3"/><rect class="f" x="0.5" y="0.5" width="62.893" height="35.862" rx="2.5"/></g><g transform="translate(9.238 12.606)"><g transform="translate(0)"><path class="b" d="M699.237,97.532H696.8L700.187,85.3h2.437Z" transform="translate(-664.414 -85.3)"/><g transform="translate(15.99 0.033)"><path class="b" d="M419.067,86.25a.9.9,0,0,0-.783-.35H404.892l-.661,2.4h12.182l-.711,2.56h-9.744v-.006h-2.437l-2.021,7.3h2.437l1.355-4.9h10.955a1.544,1.544,0,0,0,.966-.35,1.627,1.627,0,0,0,.594-.866l1.355-4.9A.993.993,0,0,0,419.067,86.25Z" transform="translate(-401.5 -85.9)"/></g><path class="b" d="M128.087,97.332a1.123,1.123,0,0,1-1.077.822H114.445a.878.878,0,0,1-.766-.35.961.961,0,0,1-.105-.866L116.638,85.9h2.437l-2.737,9.861h9.75l2.737-9.861h2.437Z" transform="translate(-113.518 -85.867)"/><g transform="translate(36.849 0.022)"><path class="c" d="M819.7,85.7l3.081,6.13-6.48,6.13Z" transform="translate(-814.129 -85.7)"/><path class="d" d="M780.6,85.7l3.082,6.13-6.485,6.13Z" transform="translate(-777.2 -85.7)"/></g></g></g></svg>