<svg xmlns="http://www.w3.org/2000/svg" width="17.172" height="19.819" viewBox="0 0 17.172 19.819"><defs><style>.a{fill:#efebe3;}</style></defs><g transform="translate(-330.807 -85.225)"><path class="a" d="M27.511,10.914a1.664,1.664,0,0,0,1.215-.708v.627h1.049V5.184H28.726v4.28c-.128.163-.414.422-.619.422s-.279-.151-.279-.387V5.18H26.78V9.9C26.78,10.454,26.95,10.914,27.511,10.914Z" transform="translate(314.389 82.049)"/><path class="a" d="M16.607,9.355a1.357,1.357,0,0,0,1.548,1.509,1.436,1.436,0,0,0,1.509-1.509V6.6a1.47,1.47,0,0,0-1.509-1.513A1.439,1.439,0,0,0,16.607,6.6Zm1.08-2.674c0-.31.143-.538.437-.538s.46.224.46.538V9.3c0,.306-.159.53-.441.53a.472.472,0,0,1-.457-.53Z" transform="translate(320.627 82.11)"/><path class="a" d="M7.915,7.65H9.1v-3.1L10.472,0h-1.2L8.514,3.057,7.7,0H6.51l1.4,4.547Z" transform="translate(326.815 85.225)"/><path class="a" d="M14.769,23.08H2.387A2.407,2.407,0,0,0,0,25.487v6.075a2.407,2.407,0,0,0,2.4,2.407H14.785a2.407,2.407,0,0,0,2.387-2.407V25.487a2.407,2.407,0,0,0-2.4-2.407ZM4.051,32.165H2.929V25.939H1.768V24.883H5.22v1.056H4.059Zm4,0h-1v-.6a2.1,2.1,0,0,1-.573.5c-.538.31-1.277.3-1.277-.774V26.795h.987v4.117c0,.217.05.364.263.364s.468-.252.588-.387V26.795h1ZM11.9,31.055c0,.662-.248,1.18-.913,1.18a1.161,1.161,0,0,1-.948-.48v.41H9.027V24.883h1.01v2.345a1.2,1.2,0,0,1,.886-.5c.731,0,.975.619.975,1.347Zm3.691-1.428H13.682v1.014c0,.387.031.751.433.751s.449-.286.449-.751v-.387H15.59v.387c0,1.033-.445,1.66-1.5,1.66-.952,0-1.439-.7-1.439-1.66v-2.4a1.474,1.474,0,0,1,1.517-1.579c.96,0,1.42.607,1.42,1.579Z" transform="translate(330.807 71.075)"/><path class="a" d="M26.145,34.755a.774.774,0,0,0-.205.166v3.347a.832.832,0,0,0,.236.19.426.426,0,0,0,.511-.054.627.627,0,0,0,.085-.387V35.258a.689.689,0,0,0-.1-.414A.422.422,0,0,0,26.145,34.755Z" transform="translate(314.903 63.95)"/></g></svg>